<svg xmlns="http://www.w3.org/2000/svg" xmlns:xlink="http://www.w3.org/1999/xlink" viewBox="0 0 1000 1000" width="1000" height="1000" preserveAspectRatio="xMidYMid meet" style="width: 100%; height: 100%; transform: translate3d(0px, 0px, 0px); content-visibility: visible;" id="Food Served"><defs><clipPath id="__lottie_element_3380"><rect width="1000" height="1000" x="0" y="0"/></clipPath></defs><g clip-path="url(#__lottie_element_3380)"><g transform="matrix(1,0,0,1,500,500)" opacity="1" style="display: block;"><g opacity="1" transform="matrix(1,0,0,1,0,0)"><path fill="rgb(209,214,255)" fill-opacity="1" d=" M417.8240051269531,11.697999954223633 C417.8240051269531,241.9530029296875 231.1649932861328,428.61199951171875 0.9100000262260437,428.61199951171875 C-229.3459930419922,428.61199951171875 -416.0050048828125,241.9530029296875 -416.0050048828125,11.697999954223633 C-416.0050048828125,-218.55799865722656 -229.3459930419922,-405.2170104980469 0.9100000262260437,-405.2170104980469 C231.1649932861328,-405.2170104980469 417.8240051269531,-218.55799865722656 417.8240051269531,11.697999954223633z"/></g></g><g transform="matrix(1,0,0,1,500,500)" opacity="1" style="display: block;"><g opacity="1" transform="matrix(1,0,0,1,0,0)"><path fill="rgb(243,244,251)" fill-opacity="1" d=" M378.5150146484375,-274.34100341796875 C360.75799560546875,-292.0979919433594 334.9119873046875,-296.7590026855469 312.8529968261719,-288.4289855957031 C312.6260070800781,-303.96600341796875 306.62200927734375,-319.43499755859375 294.7659912109375,-331.2909851074219 C270.5929870605469,-355.4639892578125 231.4010009765625,-355.4639892578125 207.2270050048828,-331.2909851074219 C191.4340057373047,-315.49798583984375 186.0290069580078,-293.3080139160156 190.87100219726562,-273.0710144042969 C188.88999938964844,-275.8550109863281 186.71600341796875,-278.5450134277344 184.218994140625,-281.0419921875 C160.0449981689453,-305.21600341796875 120.85199737548828,-305.21600341796875 96.67900085449219,-281.0419921875 C85.8949966430664,-270.25799560546875 79.95500183105469,-256.4830017089844 78.79299926757812,-242.38699340820312 C71.84200286865234,-252.4459991455078 60.24399948120117,-259.0469970703125 47.09199905395508,-259.0469970703125 C25.81599998474121,-259.0469970703125 8.567999839782715,-241.7989959716797 8.567999839782715,-220.52200317382812 C8.567999839782715,-218.81700134277344 8.692999839782715,-217.14300537109375 8.907999992370605,-215.4969940185547 C8.907999992370605,-215.4969940185547 394.7179870605469,-215.4969940185547 394.7179870605469,-215.4969940185547 C399.82501220703125,-235.9010009765625 394.4700012207031,-258.385986328125 378.5150146484375,-274.34100341796875z"/></g></g><g transform="matrix(1,0,0,1,500,500)" opacity="1" style="display: block;"><g opacity="1" transform="matrix(1,0,0,1,0,0)"><path fill="rgb(243,244,251)" fill-opacity="1" d=" M394.3489990234375,32.30500030517578 C387.47198486328125,25.42799949645996 377.4630126953125,23.624000549316406 368.9200134277344,26.850000381469727 C368.8320007324219,20.83300018310547 366.5069885253906,14.842000007629395 361.9159851074219,10.25100040435791 C352.5539855957031,0.8889999985694885 337.375,0.8889999985694885 328.0140075683594,10.25100040435791 C321.89801025390625,16.367000579833984 319.80499267578125,24.959999084472656 321.67999267578125,32.797000885009766 C320.9129943847656,31.7189998626709 320.0710144042969,30.67799949645996 319.10400390625,29.711000442504883 C309.74200439453125,20.350000381469727 294.56298828125,20.350000381469727 285.2019958496094,29.711000442504883 C281.0260009765625,33.887001037597656 278.7250061035156,39.22100067138672 278.2749938964844,44.68000030517578 C275.5830078125,40.78499984741211 271.09100341796875,38.229000091552734 265.99798583984375,38.229000091552734 C257.75799560546875,38.229000091552734 251.07899475097656,44.90800094604492 251.07899475097656,53.14799880981445 C251.07899475097656,53.80799865722656 251.1269989013672,54.457000732421875 251.2100067138672,55.09400177001953 C251.2100067138672,55.09400177001953 400.6239929199219,55.09400177001953 400.6239929199219,55.09400177001953 C402.60198974609375,47.19200134277344 400.52801513671875,38.48400115966797 394.3489990234375,32.30500030517578z"/></g></g><g transform="matrix(1,0,0,1,499.9830017089844,499.6930236816406)" opacity="1" style="display: block;"><g opacity="1" transform="matrix(1,0,0,1,0,0)"><path fill="rgb(126,132,255)" fill-opacity="1" d=" M300.37298583984375,16.288000106811523 C300.37298583984375,181.677001953125 166.29800415039062,315.75201416015625 0.9089999794960022,315.75201416015625 C-164.47999572753906,315.75201416015625 -298.5539855957031,181.677001953125 -298.5539855957031,16.288000106811523 C-298.5539855957031,-149.1009979248047 -164.47999572753906,-283.17498779296875 0.9089999794960022,-283.17498779296875 C166.29800415039062,-283.17498779296875 300.37298583984375,-149.1009979248047 300.37298583984375,16.288000106811523z"/></g></g><g transform="matrix(1,0,0,1,499.9949951171875,499.9100036621094)" opacity="1" style="display: block;"><g opacity="1" transform="matrix(1,0,0,1,0,0)"><path fill="rgb(210,221,245)" fill-opacity="1" d=" M261.77099609375,16.288000106811523 C261.77099609375,160.35800170898438 144.97900390625,277.1499938964844 0.9089999794960022,277.1499938964844 C-143.16000366210938,277.1499938964844 -259.9530029296875,160.35800170898438 -259.9530029296875,16.288000106811523 C-259.9530029296875,-127.78199768066406 -143.16000366210938,-244.572998046875 0.9089999794960022,-244.572998046875 C144.97900390625,-244.572998046875 261.77099609375,-127.78199768066406 261.77099609375,16.288000106811523z"/></g></g><g style="display: block;" transform="matrix(-0.9103010892868042,0.3703714907169342,-0.3703714907169342,-0.9103010892868042,507.77099609375,530.7779541015625)" opacity="1"><g opacity="1" transform="matrix(1,0,0,1,0,0)"><path fill="rgb(255,255,255)" fill-opacity="1" d=" M230.01499938964844,16.288000106811523 C230.01499938964844,142.81900024414062 127.44100189208984,245.39300537109375 0.9089999794960022,245.39300537109375 C-125.62200164794922,245.39300537109375 -228.19500732421875,142.81900024414062 -228.19500732421875,16.288000106811523 C-228.19500732421875,-110.24400329589844 -125.62200164794922,-212.81700134277344 0.9089999794960022,-212.81700134277344 C127.44100189208984,-212.81700134277344 230.01499938964844,-110.24400329589844 230.01499938964844,16.288000106811523z"/></g></g><g transform="matrix(-0.8883157968521118,0.36142638325691223,-0.36142638325691223,-0.8883157968521118,606.1492919921875,461.4358215332031)" opacity="1" style="display: block;"><g opacity="1" transform="matrix(1,0,0,1,0,0)"><path fill="rgb(245,87,37)" fill-opacity="1" d=" M27.22100067138672,0 C27.22100067138672,15.032999992370605 15.034000396728516,27.22100067138672 0,27.22100067138672 C-15.032999992370605,27.22100067138672 -27.22100067138672,15.032999992370605 -27.22100067138672,0 C-27.22100067138672,-15.034000396728516 -15.032999992370605,-27.22100067138672 0,-27.22100067138672 C15.034000396728516,-27.22100067138672 27.22100067138672,-15.034000396728516 27.22100067138672,0z"/></g></g><g transform="matrix(-0.9097124934196472,0.3701319992542267,-0.3701319992542267,-0.9097124934196472,545.052978515625,630.6972045898438)" opacity="1" style="display: block;"><g opacity="1" transform="matrix(1,0,0,1,0,0)"><path fill="rgb(245,87,37)" fill-opacity="1" d=" M27.22100067138672,0 C27.22100067138672,15.032999992370605 15.032999992370605,27.22100067138672 0,27.22100067138672 C-15.034000396728516,27.22100067138672 -27.22100067138672,15.032999992370605 -27.22100067138672,0 C-27.22100067138672,-15.034000396728516 -15.034000396728516,-27.22100067138672 0,-27.22100067138672 C15.032999992370605,-27.22100067138672 27.22100067138672,-15.034000396728516 27.22100067138672,0z"/></g></g><g transform="matrix(-0.8504960536956787,0.3460387885570526,-0.3460387885570526,-0.8504960536956787,392.3713684082031,432.8930358886719)" opacity="1" style="display: block;"><g opacity="1" transform="matrix(1,0,0,1,0,0)"><path fill="rgb(245,87,37)" fill-opacity="1" d=" M27.22100067138672,0 C27.22100067138672,15.034000396728516 15.032999992370605,27.22100067138672 0,27.22100067138672 C-15.034000396728516,27.22100067138672 -27.22100067138672,15.034000396728516 -27.22100067138672,0 C-27.22100067138672,-15.034000396728516 -15.034000396728516,-27.22100067138672 0,-27.22100067138672 C15.032999992370605,-27.22100067138672 27.22100067138672,-15.034000396728516 27.22100067138672,0z"/></g></g><g transform="matrix(-0.8800743222236633,0.3580732047557831,-0.3580732047557831,-0.8800743222236633,395.9550476074219,619.1585693359375)" opacity="1" style="display: block;"><g opacity="1" transform="matrix(1,0,0,1,0,0)"><path fill="rgb(245,87,37)" fill-opacity="1" d=" M27.22100067138672,0 C27.22100067138672,15.032999992370605 15.032999992370605,27.22100067138672 0,27.22100067138672 C-15.034000396728516,27.22100067138672 -27.22100067138672,15.032999992370605 -27.22100067138672,0 C-27.22100067138672,-15.034000396728516 -15.034000396728516,-27.22100067138672 0,-27.22100067138672 C15.032999992370605,-27.22100067138672 27.22100067138672,-15.034000396728516 27.22100067138672,0z"/></g></g><g transform="matrix(-0.8504960536956787,0.3460387885570526,-0.3460387885570526,-0.8504960536956787,516.2651977539062,382.4847412109375)" opacity="1" style="display: block;"><g opacity="1" transform="matrix(1,0,0,1,0,0)"><path fill="rgb(245,87,37)" fill-opacity="1" d=" M27.22100067138672,0 C27.22100067138672,15.034000396728516 15.032999992370605,27.22100067138672 0,27.22100067138672 C-15.034000396728516,27.22100067138672 -27.22100067138672,15.034000396728516 -27.22100067138672,0 C-27.22100067138672,-15.034000396728516 -15.034000396728516,-27.22100067138672 0,-27.22100067138672 C15.032999992370605,-27.22100067138672 27.22100067138672,-15.034000396728516 27.22100067138672,0z"/></g></g><g transform="matrix(-0.9103010892868042,0.3703714907169342,-0.3703714907169342,-0.9103010892868042,507.77099609375,530.7779541015625)" opacity="1" style="display: block;"><g opacity="1" transform="matrix(1,0,0,1,0,0)"><path fill="rgb(126,132,255)" fill-opacity="1" d=" M-101.16699981689453,-103.93499755859375 C-101.16699981689453,-98.92400360107422 -105.22899627685547,-94.86199951171875 -110.23999786376953,-94.86199951171875 C-115.25199890136719,-94.86199951171875 -119.31400299072266,-98.92400360107422 -119.31400299072266,-103.93499755859375 C-119.31400299072266,-108.9469985961914 -115.25199890136719,-113.00900268554688 -110.23999786376953,-113.00900268554688 C-105.22899627685547,-113.00900268554688 -101.16699981689453,-108.9469985961914 -101.16699981689453,-103.93499755859375z"/></g><g opacity="1" transform="matrix(1,0,0,1,0,0)"><path fill="rgb(126,132,255)" fill-opacity="1" d=" M98.44999694824219,-94.86199951171875 C98.44999694824219,-89.8499984741211 94.38800048828125,-85.78800201416016 89.3759994506836,-85.78800201416016 C84.36399841308594,-85.78800201416016 80.302001953125,-89.8499984741211 80.302001953125,-94.86199951171875 C80.302001953125,-99.87300109863281 84.36399841308594,-103.93499755859375 89.3759994506836,-103.93499755859375 C94.38800048828125,-103.93499755859375 98.44999694824219,-99.87300109863281 98.44999694824219,-94.86199951171875z"/></g><g opacity="1" transform="matrix(1,0,0,1,0,0)"><path fill="rgb(126,132,255)" fill-opacity="1" d=" M-119.31400299072266,82.06999969482422 C-119.31400299072266,87.08200073242188 -123.3759994506836,91.14399719238281 -128.38699340820312,91.14399719238281 C-133.3990020751953,91.14399719238281 -137.4600067138672,87.08200073242188 -137.4600067138672,82.06999969482422 C-137.4600067138672,77.05899810791016 -133.3990020751953,72.99700164794922 -128.38699340820312,72.99700164794922 C-123.3759994506836,72.99700164794922 -119.31400299072266,77.05899810791016 -119.31400299072266,82.06999969482422z"/></g><g opacity="1" transform="matrix(1,0,0,1,0,0)"><path fill="rgb(126,132,255)" fill-opacity="1" d=" M184.64700317382812,72.99700164794922 C184.64700317382812,78.00800323486328 180.5850067138672,82.06999969482422 175.572998046875,82.06999969482422 C170.56199645996094,82.06999969482422 166.50100708007812,78.00800323486328 166.50100708007812,72.99700164794922 C166.50100708007812,67.98500061035156 170.56199645996094,63.92399978637695 175.572998046875,63.92399978637695 C180.5850067138672,63.92399978637695 184.64700317382812,67.98500061035156 184.64700317382812,72.99700164794922z"/></g><g opacity="1" transform="matrix(1,0,0,1,0,0)"><path fill="rgb(126,132,255)" fill-opacity="1" d=" M-5.895999908447266,209.0989990234375 C-5.895999908447266,214.11000061035156 -9.956999778747559,218.1719970703125 -14.968000411987305,218.1719970703125 C-19.979999542236328,218.1719970703125 -24.04199981689453,214.11000061035156 -24.04199981689453,209.0989990234375 C-24.04199981689453,204.08700561523438 -19.979999542236328,200.02499389648438 -14.968000411987305,200.02499389648438 C-9.956999778747559,200.02499389648438 -5.895999908447266,204.08700561523438 -5.895999908447266,209.0989990234375z"/></g><g opacity="1" transform="matrix(1,0,0,1,0,0)"><path fill="rgb(126,132,255)" fill-opacity="1" d=" M-19.5049991607666,-4.126999855041504 C-19.5049991607666,0.8849999904632568 -23.566999435424805,4.947000026702881 -28.57900047302246,4.947000026702881 C-33.59000015258789,4.947000026702881 -37.652000427246094,0.8849999904632568 -37.652000427246094,-4.126999855041504 C-37.652000427246094,-9.137999534606934 -33.59000015258789,-13.199999809265137 -28.57900047302246,-13.199999809265137 C-23.566999435424805,-13.199999809265137 -19.5049991607666,-9.137999534606934 -19.5049991607666,-4.126999855041504z"/></g><g opacity="1" transform="matrix(1,0,0,1,0,0)"><path fill="rgb(126,132,255)" fill-opacity="1" d=" M30.39900016784668,-176.5229949951172 C30.39900016784668,-171.51199340820312 26.336999893188477,-167.4499969482422 21.325000762939453,-167.4499969482422 C16.312999725341797,-167.4499969482422 12.25100040435791,-171.51199340820312 12.25100040435791,-176.5229949951172 C12.25100040435791,-181.53500366210938 16.312999725341797,-185.5959930419922 21.325000762939453,-185.5959930419922 C26.336999893188477,-185.5959930419922 30.39900016784668,-181.53500366210938 30.39900016784668,-176.5229949951172z"/></g><g opacity="1" transform="matrix(1,0,0,1,0,0)"><path fill="rgb(38,165,104)" fill-opacity="1" d=" M7.0970001220703125,21.958999633789062 C7.0970001220703125,21.958999633789062 -15.586000442504883,-12.067000389099121 12.767999649047852,-40.42100143432617 C12.767999649047852,-40.42100143432617 43.95800018310547,-6.394999980926514 4.26200008392334,27.6299991607666"/></g><g opacity="1" transform="matrix(1,0,0,1,0,0)"><path fill="rgb(38,165,104)" fill-opacity="1" d=" M-7.052000045776367,119.77999877929688 C-7.052000045776367,119.77999877929688 -29.46299934387207,126.9990005493164 -40.7130012512207,106.83799743652344 C-40.7130012512207,106.83799743652344 -16.965999603271484,94.90699768066406 -4.355999946594238,122.24199676513672"/></g><g opacity="1" transform="matrix(1,0,0,1,0,0)"><path fill="rgb(38,165,104)" fill-opacity="1" d=" M152.75100708007812,60.91999816894531 C152.75100708007812,60.91999816894531 121.70500183105469,54.018001556396484 122.37200164794922,22.83799934387207 C122.37200164794922,22.83799934387207 158.19500732421875,25.166000366210938 154.20899963378906,65.63099670410156"/></g><g opacity="1" transform="matrix(1,0,0,1,0,0)"><path fill="rgb(38,165,104)" fill-opacity="1" d=" M-117.65799713134766,-82.24099731445312 C-117.65799713134766,-82.24099731445312 -126.75299835205078,-51.76499938964844 -157.80499267578125,-54.64899826049805 C-157.80499267578125,-54.64899826049805 -152.93699645996094,-90.21600341796875 -112.85700225830078,-83.36199951171875"/></g><g opacity="1" transform="matrix(1,0,0,1,0,0)"><path fill="rgb(38,165,104)" fill-opacity="1" d=" M-17.850000381469727,-172.9759979248047 C-17.850000381469727,-172.9759979248047 -26.944000244140625,-142.5 -57.99800109863281,-145.38400268554688 C-57.99800109863281,-145.38400268554688 -53.12799835205078,-180.9499969482422 -13.04800033569336,-174.0959930419922"/></g><g opacity="1" transform="matrix(1,0,0,1,0,0)"><path fill="rgb(38,165,104)" fill-opacity="1" d=" M163.61900329589844,121.91100311279297 C163.61900329589844,121.91100311279297 154.52499389648438,152.38699340820312 123.47100067138672,149.5030059814453 C123.47100067138672,149.5030059814453 128.34100341796875,113.93699645996094 168.42100524902344,120.79100036621094"/></g></g><g transform="matrix(0.9999969601631165,0.0024715447798371315,-0.0024715447798371315,0.9999969601631165,500.6136169433594,499.18646240234375)" opacity="1" style="display: block;"><g opacity="1" transform="matrix(1,0,0,1,0,0)"><path fill="rgb(33,44,104)" fill-opacity="1" d=" M318.22198486328125,41.805999755859375 C318.22198486328125,41.805999755859375 272.0379943847656,22.163000106811523 276.54400634765625,-7.124000072479248 C281.04998779296875,-36.4109992980957 305.8320007324219,-169.281005859375 311.4639892578125,-190.70899963378906 C317.09600830078125,-212.13699340820312 327.2340087890625,-230.16000366210938 341.87701416015625,-224.5279998779297 C356.52099609375,-218.89500427246094 345.2569885253906,46.74800109863281 347.510009765625,77.8239974975586 C349.76300048828125,108.9000015258789 367.3429870605469,236.16299438476562 349.5409851074219,249.6929931640625 C331.739013671875,263.2229919433594 303.5780029296875,263.2229919433594 305.83099365234375,229.42999267578125 C308.0840148925781,195.63600158691406 318.22198486328125,41.805999755859375 318.22198486328125,41.805999755859375z"/></g></g><g transform="matrix(0.9999969601631165,-0.0024715447798371315,0.0024715447798371315,0.9999969601631165,499.3687744140625,499.2227783203125)" opacity="1" style="display: block;"><g opacity="1" transform="matrix(1,0,0,1,0,0)"><path fill="rgb(33,44,104)" fill-opacity="1" d=" M-276.25799560546875,-194.6580047607422 C-280.4410095214844,-205.33200073242188 -289.0769958496094,-208.51499938964844 -288.2019958496094,-191.61900329589844 C-287.3269958496094,-174.72300720214844 -285.7019958496094,-96.62200164794922 -285.7019958496094,-96.62200164794922 C-285.7019958496094,-96.62200164794922 -298.62701416015625,-89.16300201416016 -298.62701416015625,-89.16300201416016 C-298.62701416015625,-89.16300201416016 -300.7869873046875,-200.95199584960938 -310.4649963378906,-200.9040069580078 C-320.1440124511719,-200.8560028076172 -325.614990234375,-189.67999267578125 -325.114990234375,-180.02499389648438 C-324.614990234375,-170.3699951171875 -331.2120056152344,-87.4749984741211 -331.2120056152344,-87.4749984741211 C-331.2120056152344,-87.4749984741211 -343.6319885253906,-93.62200164794922 -343.6319885253906,-93.62200164794922 C-343.6319885253906,-93.62200164794922 -339.218994140625,-195.33099365234375 -346.6709899902344,-199.0279998779297 C-354.12298583984375,-202.72500610351562 -362.3599853515625,-198.21600341796875 -362.3599853515625,-198.21600341796875 C-362.3599853515625,-198.21600341796875 -371.1809997558594,-88.14700317382812 -361.54400634765625,-65.6259994506836 C-353.54998779296875,-46.94599914550781 -342.5589904785156,-34.862998962402344 -323.1929931640625,-31.860000610351562 C-325.25799560546875,13.125 -333.968994140625,207.00799560546875 -331.7439880371094,229.33700561523438 C-329.2239990234375,254.61900329589844 -326.3110046386719,264.14300537109375 -312.8789978027344,266.47601318359375 C-299.4469909667969,268.8089904785156 -286.2330017089844,266.91400146484375 -289.37799072265625,229.56399536132812 C-292.1719970703125,196.38299560546875 -300.947998046875,9.668999671936035 -302.87200927734375,-31.610000610351562 C-279.4809875488281,-33.652000427246094 -265.60198974609375,-42.00899887084961 -263.7869873046875,-70.68900299072266 C-261.7900085449219,-102.22799682617188 -272.07501220703125,-183.98300170898438 -276.25799560546875,-194.6580047607422z"/></g></g></g></svg>